<?xml version='1.0' encoding='iso-8859-1'?>
<svg version="1.1" xmlns="http://www.w3.org/2000/svg" viewBox="0 0 511 511" xmlns:xlink="http://www.w3.org/1999/xlink" enable-background="new 0 0 511 511">
  <g>
    <path d="m458.223,439.308l-155.223-262.275v-131.267c9.29-3.138 16-11.93 16-22.266 0-12.958-10.542-23.5-23.5-23.5h-80c-12.958,0-23.5,10.542-23.5,23.5 0,10.336 6.71,19.128 16,22.266v131.268l-155.223,262.274c-8.801,14.87-8.945,32.709-0.387,47.72 8.559,15.011 23.985,23.972 41.264,23.972h323.692c17.279,0 32.705-8.961 41.264-23.972 8.558-15.011 8.414-32.85-0.387-47.72zm-242.723-424.308h80c4.687,0 8.5,3.813 8.5,8.5s-3.813,8.5-8.5,8.5h-80c-4.687,0-8.5-3.813-8.5-8.5s3.813-8.5 8.5-8.5zm230.079,464.598c-5.856,10.27-16.411,16.402-28.233,16.402h-323.692c-11.822,0-22.377-6.132-28.233-16.402s-5.757-22.476 0.265-32.65l156.269-264.041c0.685-1.157 1.046-2.476 1.046-3.82v-132.087h65v132.086c0,1.344 0.361,2.663 1.046,3.82l156.269,264.041c6.02,10.175 6.119,22.38 0.263,32.651z"/>
    <path d="m231.5,271h48c4.142,0 7.5-3.358 7.5-7.5s-3.358-7.5-7.5-7.5h-48c-4.142,0-7.5,3.358-7.5,7.5s3.358,7.5 7.5,7.5z"/>
    <path d="m231.5,311h48c4.142,0 7.5-3.358 7.5-7.5s-3.358-7.5-7.5-7.5h-48c-4.142,0-7.5,3.358-7.5,7.5s3.358,7.5 7.5,7.5z"/>
    <path d="m231.5,351h48c4.142,0 7.5-3.358 7.5-7.5s-3.358-7.5-7.5-7.5h-48c-4.142,0-7.5,3.358-7.5,7.5s3.358,7.5 7.5,7.5z"/>
    <path d="m385.75,379.68c-1.35-2.281-3.804-3.68-6.454-3.68h-247.59c-2.65,0-5.104,1.399-6.454,3.68l-44.936,75.925c-2.915,4.925-2.961,10.601-0.126,15.573 2.835,4.971 7.742,7.822 13.464,7.822h323.692c5.722,0 10.629-2.851 13.464-7.822s2.789-10.647-0.126-15.573l-44.934-75.925zm-177.725,11.32c-0.011,0.166-0.025,0.331-0.025,0.5 0,4.687-3.813,8.5-8.5,8.5s-8.5-3.813-8.5-8.5c0-0.169-0.014-0.334-0.025-0.5h17.05zm209.755,72.747c-0.081,0.143-0.149,0.224-0.131,0.228-0.034,0.008-0.128,0.025-0.303,0.025h-323.692c-0.131,0-0.217-0.01-0.251-0.01-0.005,0-0.01,0-0.013,0.001-0.034-0.037-0.097-0.116-0.17-0.244-0.081-0.141-0.118-0.24-0.128-0.228 0.01-0.033 0.043-0.124 0.132-0.274l42.757-72.245h40.044c-0.011,0.166-0.025,0.331-0.025,0.5 0,12.958 10.542,23.5 23.5,23.5s23.5-10.542 23.5-23.5c0-0.169-0.014-0.334-0.025-0.5h152.044l42.757,72.245c0.079,0.133 0.114,0.219 0.127,0.233-0.014,0.047-0.05,0.142-0.123,0.269z"/>
    <path d="m279.5,408c-12.958,0-23.5,10.542-23.5,23.5s10.542,23.5 23.5,23.5 23.5-10.542 23.5-23.5-10.542-23.5-23.5-23.5zm0,32c-4.687,0-8.5-3.813-8.5-8.5s3.813-8.5 8.5-8.5 8.5,3.813 8.5,8.5-3.813,8.5-8.5,8.5z"/>
    <path d="m343.52,408h-0.01c-4.142,0-7.495,3.358-7.495,7.5s3.363,7.5 7.505,7.5 7.5-3.358 7.5-7.5-3.358-7.5-7.5-7.5z"/>
    <path d="m223.52,432h-0.01c-4.142,0-7.495,3.358-7.495,7.5s3.363,7.5 7.505,7.5 7.5-3.358 7.5-7.5-3.358-7.5-7.5-7.5z"/>
    <path d="m151.52,416h-0.01c-4.142,0-7.495,3.358-7.495,7.5s3.363,7.5 7.505,7.5 7.5-3.358 7.5-7.5-3.358-7.5-7.5-7.5z"/>
  </g>
</svg>
