<?xml version="1.0" encoding="iso-8859-1"?>
<!-- Generator: Adobe Illustrator 19.0.0, SVG Export Plug-In . SVG Version: 6.00 Build 0)  -->
<svg version="1.1" id="Layer_1" xmlns="http://www.w3.org/2000/svg" xmlns:xlink="http://www.w3.org/1999/xlink" x="0px" y="0px"
	 viewBox="0 0 488.9 488.9" style="enable-background:new 0 0 488.9 488.9;" xml:space="preserve">
<g>
	<g>
		<path d="M461.35,122.8L313.65,4.2c-3.1-2.1-8.3-4.2-12.5-4.2H41.05c-11.4,0-20.8,9.4-20.8,20.8v447.3c0,11.4,9.4,20.8,20.8,20.8
			h407.8c11.4,0,19.8-9.4,19.8-20.8V138.4C468.65,132.1,466.55,126.9,461.35,122.8z M321.95,63.2l80.3,64.7h-80.3V63.2z
			 M61.85,448.4V40.6h218.5v107.2c0,11.4,9.4,20.8,20.8,20.8h126.9v279.9H61.85V448.4z"/>
		<g>
			<path d="M199.25,211.4c-2.6-6.8-9.1-11.2-16.3-11.2s-13.7,4.5-16.3,11.2l-72.3,188.5c-3.5,9,1,19.1,10.1,22.6
				c2.1,0.8,4.2,1.2,6.3,1.2c7,0,13.7-4.3,16.3-11.2l17.4-45.4h77.1l17.4,45.4c3.5,9,13.6,13.5,22.6,10.1c9-3.5,13.5-13.6,10.1-22.6
				L199.25,211.4z M157.85,332l25.1-65.5l25.1,65.4h-50.2L157.85,332L157.85,332z"/>
			<path d="M378.25,297.2h-28.3v-28.3c0-9.7-7.8-17.5-17.5-17.5s-17.5,7.8-17.5,17.5v28.3h-28.3c-9.7,0-17.5,7.8-17.5,17.5
				s7.8,17.5,17.5,17.5h28.3v28.3c0,9.7,7.8,17.5,17.5,17.5s17.5-7.8,17.5-17.5v-28.3h28.3c9.7,0,17.5-7.8,17.5-17.5
				S387.95,297.2,378.25,297.2z"/>
		</g>
	</g>
</g>
<g>
</g>
<g>
</g>
<g>
</g>
<g>
</g>
<g>
</g>
<g>
</g>
<g>
</g>
<g>
</g>
<g>
</g>
<g>
</g>
<g>
</g>
<g>
</g>
<g>
</g>
<g>
</g>
<g>
</g>
</svg>
